<svg width="211" height="228" viewBox="0 0 211 228" fill="none" xmlns="http://www.w3.org/2000/svg">
<path fill-rule="evenodd" clip-rule="evenodd" d="M42.5067 8.7411C39.0536 21.5391 39.5682 38.4196 43.4123 38.4196C45.0562 38.4196 45.1749 37.5328 44.8285 27.7802L44.4515 17.1408L46.6674 25.5533C47.8858 30.1802 49.4 33.9659 50.0324 33.9659C50.6639 33.9659 52.4483 35.5247 53.9972 37.4298C60.2205 45.0853 65.2334 49.3905 79.6317 59.447C96.9041 71.5115 103.159 82.8051 98.1195 92.8339C95.6947 97.6607 91.9398 99.6005 87.9423 98.0922C85.2909 97.0916 85.0276 97.1282 86.046 98.3555C88.2709 101.037 102.062 99.5837 100.369 96.8471C99.9653 96.1929 101.648 81.0998 102.212 80.3229C102.275 80.2358 104.048 79.8429 106.15 79.45L109.972 78.7354L109.326 84.063C108.806 88.3376 108.906 89.0215 109.832 87.528C110.558 86.3532 110.809 83.0654 110.51 78.6206C109.696 66.5343 106.429 63.0079 87.0437 53.288C81.3588 50.4386 73.7063 46.1294 70.0385 43.7125C61.5843 38.1434 50.6391 27.223 50.0176 23.7372C49.7593 22.2863 48.732 16.5351 47.7343 10.9551C46.7377 5.37509 45.6351 0.810547 45.2838 0.810547C44.9334 0.810547 43.6834 4.37944 42.5067 8.7411ZM23.8991 13.9242C21.0092 17.5753 18.2291 29.3142 18.2162 37.9247C18.1994 48.8303 19.3821 56.5065 20.9933 55.9503C21.8316 55.6613 22.0642 52.0815 21.8187 43.2721C21.4199 28.9837 22.5145 28.6115 25.0413 42.1775C25.9835 47.2379 27.4314 53.0277 28.2588 55.0437C30.3421 60.1229 35.5203 68.1109 36.7287 68.1109C37.279 68.1109 36.9178 66.8866 35.9271 65.3892C32.475 60.1774 28.6299 52.7605 28.6161 51.2858C28.6082 50.4693 29.4316 51.1373 30.4461 52.7704C31.4605 54.4034 33.6735 57.0756 35.3629 58.7086C37.0534 60.3417 38.4489 62.4012 38.4637 63.286C38.4954 65.1477 43.3756 66.4333 46.9782 65.5297C49.2209 64.9666 49.0487 64.6538 43.4043 59.0095C36.3309 51.936 29.7493 43.375 27.1939 37.9247C25.1966 33.664 23.524 26.542 24.5207 26.544C24.8562 26.545 26.41 28.8827 27.9728 31.74C32.3869 39.8061 35.6707 44.3578 37.0751 44.3578C38.7656 44.3578 40.1254 40.1189 38.5983 39.6102C37.9679 39.3994 35.7371 36.7074 33.6418 33.6274C31.5456 30.5474 28.6042 26.8053 27.1048 25.3128C24.6157 22.8336 24.4355 22.1665 25.0363 17.6426C25.7212 12.4753 25.5331 11.8597 23.8991 13.9242ZM53.3371 21.5786C52.0811 22.3773 52.2573 22.9296 54.4802 25.1584C57.4493 28.1365 59.503 27.9939 65.2136 24.4102L68.6776 22.2368L66.2033 21.5193C62.5503 20.4603 55.0414 20.4949 53.3371 21.5786ZM92.9255 23.2255C78.7321 25.3574 62.2445 29.8724 62.2445 31.6282C62.2445 32.795 66.6497 36.5856 69.1071 37.5328C69.9593 37.8614 72.4385 37.3744 74.6159 36.451C84.2111 32.3794 92.21 31.264 108.503 31.7271C131.898 32.3922 140.624 34.8972 157.257 45.7266C164.823 50.6524 184.903 69.5776 184.946 71.8223C184.958 72.5032 185.303 73.0634 185.711 73.0674C186.119 73.0713 186.938 74.0739 187.531 75.2942C188.124 76.5145 190.622 81.378 193.081 86.1009C195.541 90.8248 197.833 96.1692 198.176 97.9774C198.519 99.7866 199.503 103.716 200.363 106.71C201.396 110.311 201.943 116.366 201.979 124.603C202.025 135.257 201.648 138.396 199.366 146.376C190.072 178.879 166.392 203.448 133.724 214.484C126.125 217.051 116.554 218.501 107.029 218.527C102.919 218.539 99.8535 218.97 99.8535 219.537C99.8535 220.835 112.383 220.802 120.637 219.482C152.227 214.428 180.602 193.762 194.713 165.53C198.504 157.948 198.558 157.893 199.041 161.182C200.3 169.757 182.805 192.809 165.669 205.153C147.905 217.949 125.509 225.475 105.188 225.475C99.6833 225.475 96.8844 225.851 96.8844 226.591C96.8844 227.391 100.751 227.564 110.493 227.203C121.216 226.805 125.921 226.154 132.688 224.133C165.249 214.405 189.392 193.364 202.331 163.436C213.767 136.984 213.221 110.035 200.687 82.3528C184.359 46.2878 146.406 22.2388 106.576 22.7188C100.429 22.793 94.2864 23.0206 92.9255 23.2255ZM50.3769 35.3336C50.36 37.7921 54.5089 43.7442 60.6322 50.0487C63.9369 53.4513 67.0871 56.2344 67.6325 56.2344C68.1778 56.2344 65.6887 53.2286 62.102 49.5538C58.5143 45.879 54.4099 40.8691 52.9828 38.4196C51.5546 35.97 50.3828 34.5815 50.3769 35.3336ZM138.452 39.3538C138.452 41.0077 137.419 43.4691 136.064 45.0447C133.875 47.5902 133.11 47.8198 126.909 47.7981C121.057 47.7773 118.804 47.1755 110.245 43.3444C101.011 39.2113 99.7852 38.9154 91.9358 38.9332C83.2155 38.952 76.5003 41.1373 77.3673 43.6739C77.779 44.8804 80.7333 44.9081 89.2675 43.7858C95.2949 42.993 101.057 44.4489 111.364 49.3677C120.066 53.5216 126.958 54.3965 134.5 52.3072C137.706 51.4194 137.814 51.458 135.978 52.8456C134.889 53.669 131.65 55.0249 128.779 55.8602C121.157 58.0772 112.538 55.9186 101.966 49.1451C99.5586 47.6031 96.9764 46.9855 92.6622 46.9212C84.9227 46.8054 84.2368 48.571 91.1431 50.8305C99.802 53.6631 104.034 56.2274 109.612 62.0182C114.565 67.1608 115.189 67.5062 119.014 67.231C124.165 66.8619 128.153 65.2081 132.27 61.7362C134.042 60.2427 135.252 59.6182 134.961 60.3496C134.07 62.5824 127.323 66.8243 122.617 68.1099C115.552 70.0398 115.376 70.1081 115.953 70.6841C116.732 71.463 128.587 68.0604 131.422 66.2433C134.49 64.2777 139.442 57.4349 139.442 55.1605C139.442 54.1886 139.913 52.1558 140.488 50.6415C141.326 48.4374 141.718 48.1781 142.453 49.34C143.874 51.5867 143.553 59.3826 141.91 62.5329C139.708 66.756 140.032 68.1109 143.245 68.1109C150.779 68.1109 165.441 75.2576 173.429 82.8239C183.632 92.4875 188.927 103.242 188.927 114.298V118.501L184.256 113.507C181.687 110.76 179.42 109.003 179.22 109.604C179.02 110.203 180.85 114.139 183.287 118.352C185.725 122.563 188.248 127.68 188.895 129.72C189.541 131.762 190.455 133.432 190.923 133.432C192.235 133.432 193.237 125.069 193.233 114.132C193.229 101.95 190.963 95.2933 183.69 86.0959C176.099 76.4967 163.124 67.8644 152.163 65.12L147.563 63.9689L148.092 58.1455C148.756 50.8246 146.936 44.0817 143.124 39.7398C139.556 35.6771 138.452 35.585 138.452 39.3538ZM45.3036 40.0397C45.0948 40.5484 43.4766 41.9815 41.708 43.2236C37.7848 45.979 37.7026 47.1933 41.2131 50.5435L43.9348 53.1405L47.2731 50.4079C49.7246 48.3998 50.4432 47.1676 49.979 45.7682C49.0635 43.0128 45.749 38.952 45.3036 40.0397ZM52.3474 52.0627C48.7983 53.2811 48.5726 56.0651 51.7456 59.4895C54.2278 62.1677 56.2379 62.2063 59.7019 59.6429C61.5715 58.2593 61.5606 58.1712 59.2071 55.6554C56.1894 52.4299 54.2456 51.4115 52.3474 52.0627ZM18.7051 66.367C12.2106 75.5337 6.66429 86.9837 3.23791 98.2971C0.724048 106.597 0.538978 108.453 0.518194 125.514C0.496421 142.684 0.663675 144.371 3.19832 152.618C8.08057 168.507 13.0123 177.124 25.3688 191.35C31.989 198.971 44.6167 209.535 52.2019 213.794C55.9064 215.876 71.8199 222.506 73.1095 222.506C73.5054 222.506 74.122 218.692 74.4803 214.031C75.5967 199.515 80.1256 189.304 91.9012 174.752L98.9093 166.092H95.6017C91.437 166.092 82.6177 168.655 78.063 171.189C76.1479 172.254 73.4817 174.731 72.1366 176.695C68.9181 181.391 64.6336 183.899 59.8207 183.903C56.4082 183.907 55.3234 183.28 51.2666 178.958C48.7112 176.237 45.742 174.01 44.6692 174.01C42.3434 174.01 39.105 171.56 31.5021 164.052C23.8506 156.495 23.6467 155.472 28.4132 148.528C33.245 141.489 39.4811 130.695 39.4811 129.371C39.4811 128.829 38.8111 127.09 37.9926 125.505C36.5367 122.691 36.6278 122.435 42.0405 114.131C45.0868 109.459 47.3681 105.088 47.1118 104.418C46.8545 103.749 45.4065 103.099 43.8933 102.974C36.0003 102.321 30.0719 94.1719 30.929 85.1547C31.2121 82.1846 32.5304 77.9546 33.9833 75.3546C35.3897 72.8377 36.3111 70.5495 36.03 70.2685C34.782 69.0194 30.4767 72.7388 28.6349 76.658C24.1713 86.1543 27.47 99.1057 35.6945 104.378C38.049 105.887 40.1472 107.238 40.357 107.38C40.9132 107.756 37.6294 112.729 34.8483 115.724C32.1592 118.62 31.9039 120.064 32.9203 126.633C33.6121 131.111 33.4657 131.461 26.6584 141.642C22.8243 147.377 19.6869 153.114 19.6869 154.394C19.6869 155.674 20.4658 158.155 21.4189 159.907C23.815 164.314 39.3574 177.96 42.7828 178.664C44.3268 178.98 46.0182 180.179 46.5427 181.326C48.0293 184.583 54.3308 188.157 59.4535 188.649C65.4967 189.23 72.0466 186.139 75.9114 180.883C78.9162 176.798 82.3792 173.775 85.2582 172.723C86.9081 172.122 86.9091 172.224 85.281 174.782C84.3398 176.263 83.2887 177.697 82.9463 177.969C82.6038 178.241 80.18 182.249 77.5612 186.876C72.2485 196.262 70.1622 202.165 70.1622 207.817C70.1622 209.909 69.7999 211.619 69.3575 211.619C68.9151 211.619 64.699 209.652 59.9889 207.249C37.3503 195.697 17.9341 173.275 11.694 151.473C4.13856 125.078 8.77337 96.7026 24.3781 73.8176L28.9229 67.1519L27.0266 63.5909C25.9835 61.6322 24.8304 59.8379 24.4633 59.6043C24.0971 59.3707 21.506 62.4141 18.7051 66.367ZM64.6099 62.9297C64.0052 63.3296 62.767 65.1091 61.8575 66.8827C60.3333 69.8567 60.5887 72.1707 62.7334 74.8162C63.2015 75.3942 71.425 70.5228 71.8516 69.4163C72.388 68.0218 68.2629 62.1657 66.7595 62.1875C66.1815 62.1964 65.2136 62.5299 64.6099 62.9297ZM78.0798 66.8332C78.0798 67.2835 79.2348 69.352 80.6472 71.4294C83.4431 75.5436 83.5134 79.3065 80.952 87.626C79.32 92.9289 80.4472 94.1145 83.5312 90.3408C87.1406 85.9247 86.9645 77.9407 83.1254 71.8866C80.3077 67.4438 78.0798 65.212 78.0798 66.8332ZM42.4799 72.3459C38.1341 74.545 35.5183 79.6351 35.554 85.8247C35.5866 91.6254 36.3942 93.3248 40.4441 96.1157C43.0718 97.9269 48.921 98.4742 47.8937 96.8125C47.5572 96.2682 46.0498 95.8228 44.5435 95.8228C42.961 95.8228 40.9548 94.8826 39.7899 93.5959C37.5185 91.085 35.8835 86.187 37.8273 87.7121C38.4647 88.2129 40.3224 88.9275 41.9554 89.3006C43.5884 89.6737 45.8153 90.2032 46.904 90.4774C48.4538 90.8683 48.2925 90.5179 46.1617 88.8631C44.6642 87.7012 43.44 85.9079 43.44 84.8786C43.44 82.2202 48.3875 79.9874 54.2773 79.9874C57.0267 79.9874 59.2753 79.6321 59.2753 79.1986C59.2753 78.7651 57.5869 76.761 55.5224 74.7449C51.4368 70.7554 47.1732 69.9715 42.4799 72.3459ZM124.926 73.8571C120.518 75.6495 118.589 77.0183 120.472 77.0183C121.108 77.0183 121.627 78.1317 121.627 79.4926C121.627 81.9015 121.817 81.9678 128.803 81.9985C133.537 82.0193 136.631 82.524 137.899 83.4831C138.956 84.2818 141.183 84.9429 142.848 84.9508C147.499 84.9746 160.56 88.5266 166.734 91.4473C170.597 93.2753 172.587 93.7543 173.311 93.0308C174.034 92.3073 175.101 92.4865 176.837 93.6236C179.259 95.2102 179.296 95.1993 178.224 93.1961C176.657 90.2675 166.736 81.3958 161.784 78.4939C150.89 72.1093 134.344 70.028 124.926 73.8571ZM71.2212 85.6129C65.8352 88.8275 63.9745 90.3309 59.4723 95.1003C55.4076 99.4085 41.4605 121.089 41.4605 123.102C41.4605 124.722 44.5118 126.504 47.287 126.504C50.265 126.504 54.3268 124.396 54.3268 122.852C54.3268 121.888 53.4776 122.124 51.3873 123.669C48.9715 125.455 48.0451 125.649 46.1914 124.756L43.9348 123.668L46.4091 123.568C49.3644 123.45 51.4309 121.775 57.1267 114.891C61.8743 109.152 66.0697 107.275 72.6364 107.95C76.4063 108.337 76.3587 108.365 71.6467 108.538C68.925 108.638 66.0301 109.195 65.2136 109.776C64.1032 110.567 64.7267 110.69 67.6879 110.267C69.8653 109.955 73.2055 109.689 75.1107 109.675C80.8896 109.631 81.6804 108.414 78.2263 104.88C75.3898 101.978 73.1491 96.5532 73.1372 92.5567C73.1343 91.5779 73.8261 89.4322 74.6762 87.7893C76.9981 83.298 76.0737 82.716 71.2212 85.6129ZM114.204 92.4231C110.35 94.4174 103.689 100.901 104.137 102.221C104.328 102.784 103.331 103.805 101.921 104.489L99.3586 105.731L102.328 105.172C103.961 104.864 107.932 103.055 111.151 101.151C116.999 97.6953 127.055 94.4006 128.683 95.4071C130.459 96.5047 129.429 99.1413 125.806 102.764C121.764 106.806 114.409 109.602 107.344 109.781L103.317 109.884L107.266 110.925C112.489 112.303 120.753 110.58 125.204 107.186C129.161 104.167 136.829 93.2406 135.968 91.8471C134.957 90.2111 117.59 90.6704 114.204 92.4231ZM164.68 93.4178C167.644 95.7624 172.102 97.9596 172.102 97.0758C172.102 96.1049 168.851 94.0433 165.356 92.7982C162.808 91.8907 162.781 91.9164 164.68 93.4178ZM140.432 98.1644C140.432 99.0542 141.154 99.7816 142.037 99.7816C143.194 99.7816 143.364 100.128 142.647 101.019C142.098 101.7 141.343 103.689 140.969 105.44C140.302 108.562 140.41 108.681 146.546 111.595C149.987 113.229 155.561 116.807 158.933 119.545C165.265 124.689 168.883 125.727 171.113 123.04C172.986 120.782 174.364 121.251 176.767 124.963C179.63 129.383 180.144 131.655 180.995 143.673L181.706 153.721L181.853 144.12C182.033 132.288 180.805 126.087 176.465 116.942C170.991 105.404 160.155 98.0645 147.112 97.0609C141.38 96.6195 140.432 96.7759 140.432 98.1644ZM76.0292 114.036C74.0953 115.35 71.6942 118.264 70.6659 120.547C69.2516 123.683 67.6631 125.256 64.0745 127.075C59.3892 129.448 57.2959 131.853 57.2959 134.86C57.2959 136.128 57.6364 136.205 59.1279 135.274C60.5471 134.387 61.6061 134.448 63.829 135.543C66.2498 136.736 67.1247 136.749 69.4288 135.631C74.8821 132.982 82.108 131.783 94.0459 131.543C100.746 131.409 106.51 131.125 106.855 130.912C107.2 130.699 108.009 131.682 108.653 133.096C109.297 134.51 110.084 135.407 110.402 135.09C111.747 133.746 109.445 125.389 106.678 121.568C100.24 112.684 83.9221 108.673 76.0292 114.036ZM63.729 116.813C59.6326 119.161 57.5998 124.524 60.8044 124.524C63.0105 124.524 67.193 120.018 67.193 117.641C67.193 115.347 66.5517 115.193 63.729 116.813ZM124.007 119.96C123.673 120.831 122.942 121.261 122.384 120.917C121.267 120.226 121.249 120.177 124.352 126.504C125.552 128.953 127.004 132.843 127.578 135.146C128.444 138.622 128.996 139.296 130.816 139.105C132.768 138.9 133.041 139.39 133.311 143.576C133.476 146.162 134.018 148.277 134.514 148.277C135.01 148.277 137.039 147.504 139.023 146.557C142.588 144.857 142.624 144.78 142.064 140.048C140.862 129.903 134.503 120.844 127.327 119.053C125.318 118.552 124.457 118.787 124.007 119.96ZM117.668 122.919C117.668 123.125 118.391 125.017 119.273 127.125C121.428 132.274 120.574 142.061 117.34 149.267C114.59 155.393 107.191 165.59 98.4095 175.358C87.7404 187.225 83.0878 196.319 82.3891 206.67L82.0219 212.114L83.5559 206.677C85.1068 201.181 90.5225 190.499 94.0825 185.91C98.2863 180.493 106.888 172.13 109.588 170.646C110.019 170.409 110.627 170.251 111.09 170.088V170.088C111.665 169.887 112.177 169.526 112.743 169.301C113.67 168.931 115.3 168.628 117.074 168.537C122.833 168.24 124.024 167.157 126.577 159.896C129.198 152.434 129.194 142.539 126.567 135.625C124.227 129.47 120.034 122.545 118.645 122.545C118.108 122.545 117.668 122.713 117.668 122.919ZM161.273 126.329C163.12 128.681 164.8 130.101 165.006 129.483C165.212 128.865 165.221 128.276 165.025 128.174C164.83 128.072 163.149 126.652 161.292 125.019L157.915 122.05L161.273 126.329ZM42.8798 131.22C42.2998 131.62 40.3263 134.619 38.4944 137.885C36.6634 141.152 33.6864 146.045 31.8792 148.759C30.0729 151.473 28.5943 154.526 28.5943 155.542C28.5943 157.116 29.1149 156.933 32.0929 154.319C34.5662 152.146 36.5961 151.247 39.0209 151.247C40.9073 151.247 42.4503 151.692 42.4503 152.236C42.4503 154.72 47.4612 151.297 48.6973 147.968C49.0645 146.98 49.7662 146.421 50.2571 146.725C51.228 147.324 52.7225 144.364 51.8763 143.517C51.5912 143.232 51.3577 143.593 51.3577 144.319C51.3577 145.044 51.1518 145.432 50.8994 145.18C50.647 144.927 51.0875 142.293 51.8773 139.324C54.1576 130.755 54.0497 130.461 48.636 130.478C46.0508 130.486 43.4598 130.82 42.8798 131.22ZM77.585 136.241C78.6737 136.719 81.3459 137.43 83.5233 137.822C86.5785 138.371 87.2188 138.266 86.3311 137.356C85.6977 136.708 83.0254 135.996 80.3928 135.774C77.0862 135.496 76.2182 135.641 77.585 136.241ZM53.9972 139.04C53.634 139.403 53.3509 140.405 53.3668 141.267C53.3915 142.554 53.5855 142.511 54.4475 141.028C55.5135 139.195 55.2047 137.833 53.9972 139.04ZM33.2954 154.33C31.798 155.447 30.5737 156.779 30.5737 157.29C30.5737 158.582 35.2323 155.41 35.9033 153.661C36.5882 151.876 36.5823 151.878 33.2954 154.33ZM96.6142 154.262C94.0162 155.316 89.899 156.294 87.4643 156.435C81.436 156.782 81.8299 158.175 87.9572 158.175C93.4501 158.175 100.403 155.801 101.23 153.644C101.528 152.87 101.674 152.261 101.555 152.291C101.435 152.32 99.2122 153.207 96.6142 154.262ZM8.78525 158.092C8.77139 159.469 8.64372 159.48 7.73021 158.175C6.93844 157.043 6.85531 157.278 7.38184 159.164C7.7609 160.525 8.45865 161.787 8.93074 161.968C9.40283 162.15 9.7898 162.915 9.7898 163.67C9.7898 165.388 12.7015 170.623 18.3488 179.059C23.5814 186.876 37.666 200.826 45.9142 206.362C54.6801 212.244 70.8075 220.211 71.8466 219.171C72.7532 218.265 70.8203 213.598 69.5386 213.598C67.0812 213.598 55.75 208.028 49.2426 203.621C41.998 198.715 28.8823 185.916 22.9559 177.969C20.2359 174.321 15.9417 166.87 13.5419 161.968C12.4647 159.768 11.7692 158.081 11.7692 157.482C11.7692 156.955 11.1012 156.525 10.2847 156.525C9.46815 156.525 8.79316 157.23 8.78525 158.092ZM41.4883 160.576C39.9374 164.654 40.4332 166.055 42.0861 162.266C42.8857 160.433 43.3074 158.701 43.0223 158.417C42.7383 158.133 42.0474 159.104 41.4883 160.576ZM58.2936 169.432C55.1532 171.256 52.7116 173.411 52.5136 174.536C52.193 176.353 52.2593 176.368 53.4954 174.763C54.2249 173.817 57.7166 171.489 61.2548 169.59C64.793 167.691 66.7971 166.168 65.7085 166.206C64.6198 166.245 61.2825 167.696 58.2936 169.432ZM43.0678 169.259C43.337 169.695 44.6177 170.051 45.9142 170.051C47.2108 170.051 48.4915 169.695 48.7607 169.259C49.0299 168.824 47.7492 168.468 45.9142 168.468C44.0793 168.468 42.7986 168.824 43.0678 169.259ZM59.0398 179.658C60.271 179.895 62.0525 179.886 62.9986 179.638C63.9448 179.391 62.9373 179.197 60.7599 179.208C58.5825 179.219 57.8086 179.422 59.0398 179.658Z" fill="white"/>
<path d="M8.78525 158.092C8.77139 159.469 8.64372 159.48 7.73021 158.175C6.93844 157.043 6.85531 157.278 7.38184 159.164C7.7609 160.525 8.45865 161.787 8.93074 161.968C9.40283 162.15 9.7898 162.915 9.7898 163.67L13.5419 161.968C12.4647 159.768 11.7692 158.081 11.7692 157.482C11.7692 156.955 11.1012 156.525 10.2847 156.525C9.46815 156.525 8.79316 157.23 8.78525 158.092Z" fill="white"/>
<path d="M152.05 135.746C153.246 150.653 147.518 162.137 129.873 180.202C116.959 193.424 108.761 202.863 108.761 204.509C108.761 205.233 112.436 202.117 116.926 197.584C121.416 193.05 129.657 184.913 135.236 179.501C140.815 174.089 145.182 169.291 145.38 168.808C145.87 167.264 149.343 165.103 152.294 165.103C153.092 165.061 153.809 164.99 154.453 164.895C157.894 164.385 159.862 160.899 162.208 158.331V158.331C164.555 155.762 165.044 154.518 164.535 152.419C163.195 146.894 154.435 130.347 152.51 129.706C151.907 129.505 151.733 131.798 152.05 135.746Z" fill="white"/>
</svg>
